<svg width="116" height="82" viewBox="0 0 116 82" fill="none" xmlns="http://www.w3.org/2000/svg">
<path fill-rule="evenodd" clip-rule="evenodd" d="M8.43381 35.4551C9.78413 35.4723 11.2063 35.7864 12.6225 36.4674C12.6225 36.4674 12.6225 36.4674 12.6238 36.4674L37.1028 48.2312C38.2634 45.5503 41.0538 43.6995 44.1972 43.7896C44.1988 43.7896 44.2005 43.7896 44.202 43.7896L58.2621 44.2193C61.7075 44.2193 64.308 43.3909 67.595 42.4403C70.8908 41.4874 74.8108 40.4561 80.2291 40.4561C84.6941 40.4561 90.7105 41.8048 95.6106 43.465V40.4035C95.6106 40.0613 95.6787 39.7195 95.8097 39.4035C95.9406 39.0875 96.1343 38.7976 96.3762 38.5557C96.618 38.3138 96.9079 38.1202 97.2239 37.9892C97.5399 37.8583 97.8819 37.7902 98.2239 37.7902H112.39C112.732 37.7902 113.074 37.8581 113.39 37.9891C113.706 38.12 113.996 38.3137 114.238 38.5556C114.479 38.7975 114.673 39.0873 114.804 39.4033C114.935 39.7195 115.003 40.0613 115.003 40.4035V51.0801V79.2809C115.003 79.623 114.935 79.965 114.804 80.2811C114.673 80.5971 114.479 80.8869 114.238 81.1288C113.996 81.3707 113.706 81.5643 113.39 81.6953C113.074 81.8261 112.732 81.8942 112.39 81.8942H98.2239C97.8819 81.8942 97.5399 81.8262 97.2239 81.6951C96.9079 81.5642 96.618 81.3705 96.3762 81.1286C96.1343 80.8867 95.9406 80.5969 95.8097 80.2809C95.6787 79.9649 95.6106 79.6229 95.6106 79.2809V75.9359C78.4027 72.8909 68.1696 78.0782 52.6686 78.0782C52.6671 78.0782 52.6658 78.0782 52.6644 78.0782C49.4601 78.0782 46.0983 76.5095 41.8926 74.3274C37.6871 72.1452 32.8765 69.2163 28.0095 66.074C18.2775 59.7907 8.30796 52.6338 3.11602 49.1166C3.11471 49.1153 3.11354 49.1153 3.11236 49.1166C1.33275 47.9138 0.265221 46.0211 0.0482907 44.1453C-0.16877 42.2683 0.356959 40.4276 1.40293 38.9079C2.84107 36.8185 5.46318 35.4189 8.43433 35.4568L8.43381 35.4551ZM8.07731 40.5435C6.9004 40.5265 6.20035 41.154 5.70794 41.8694C5.33276 42.4145 5.18339 43.0551 5.23984 43.5434C5.29643 44.0316 5.44946 44.3871 6.03948 44.7853C6.04079 44.7866 6.04222 44.7866 6.04353 44.7853C11.3855 48.404 21.2638 55.4958 30.8444 61.6813C35.6346 64.7742 40.3473 67.6353 44.2995 69.6861C48.2512 71.7365 51.6806 72.8482 52.6717 72.8501C66.7004 72.8501 77.6654 67.6786 95.6097 70.6311V68.3805C95.6054 68.0356 95.6702 67.6901 95.7992 67.3703C95.9282 67.0505 96.1212 66.7568 96.3636 66.5114C96.6059 66.2661 96.8973 66.0694 97.2154 65.9364C97.5336 65.8035 97.8783 65.7343 98.2231 65.7343C98.5679 65.7343 98.9127 65.8036 99.2309 65.9364C99.549 66.0694 99.8404 66.2661 100.083 66.5114C100.325 66.7568 100.518 67.0505 100.647 67.3703C100.776 67.6901 100.841 68.0356 100.837 68.3805V76.666H102.144V43.0149H100.837V51.2874C100.841 51.6322 100.776 51.9778 100.647 52.2976C100.518 52.6174 100.325 52.9111 100.083 53.1566C99.8404 53.4018 99.549 53.5985 99.2309 53.7316C98.9127 53.8645 98.5679 53.9336 98.2231 53.9336C97.8783 53.9336 97.5336 53.8643 97.2154 53.7316C96.8973 53.5985 96.6059 53.4018 96.3636 53.1566C96.1212 52.9111 95.9282 52.6174 95.7992 52.2976C95.6702 51.9778 95.6054 51.6322 95.6097 51.2874V49.0213C90.9956 47.3187 83.9321 45.6809 80.2282 45.6809C75.4533 45.6809 72.2582 46.5313 69.046 47.4601C65.8337 48.389 62.5382 49.4445 58.2346 49.4445C58.2081 49.4445 58.1815 49.4444 58.1549 49.4431L44.0464 49.0119C42.7217 48.974 41.7558 50.017 41.7558 50.9865C41.7558 51.9771 42.6745 52.9025 44.2211 52.9617C44.225 52.9617 44.2291 52.9631 44.233 52.9631L71.0748 54.113C71.4199 54.126 71.763 54.2019 72.0777 54.344C72.3922 54.4862 72.6781 54.6916 72.9135 54.9442C73.1488 55.1969 73.3334 55.4966 73.4529 55.8206C73.5725 56.1444 73.627 56.4923 73.6122 56.8372C73.5975 57.1822 73.5134 57.524 73.3667 57.8366C73.2199 58.1491 73.0104 58.432 72.7544 58.6637C72.4984 58.8954 72.1959 59.0755 71.8704 59.1903C71.5447 59.3053 71.1962 59.3546 70.8515 59.3349L44.0214 58.1853H44.0097C41.1985 58.0729 38.5641 56.5098 37.3044 54.1256L10.3585 41.1768H10.3572C9.44018 40.7358 8.69282 40.5507 8.0764 40.5422L8.07731 40.5435ZM109.776 43.0174H107.371V76.6685H109.776V51.0808V43.0174Z" fill="black"/>
<path fill-rule="evenodd" clip-rule="evenodd" d="M50.5644 16.3355C50.9063 16.3407 51.2471 16.4137 51.561 16.5492C51.8749 16.6847 52.1617 16.8826 52.3999 17.1279C52.6382 17.3731 52.8275 17.6657 52.9539 17.9835C53.0801 18.3012 53.1433 18.644 53.1384 18.9858V25.2197H59.3719C59.7178 25.2132 60.0649 25.277 60.3862 25.4052C60.7077 25.5332 61.0032 25.7259 61.25 25.9683C61.4969 26.2109 61.6947 26.5028 61.8285 26.8219C61.9625 27.1411 62.032 27.4869 62.032 27.8329C62.032 28.179 61.9625 28.5248 61.8285 28.8439C61.6947 29.1629 61.4969 29.4549 61.25 29.6973C61.0032 29.9399 60.7077 30.1326 60.3862 30.2607C60.0649 30.3889 59.7178 30.4523 59.3719 30.4461H53.1384V36.68C53.1427 37.0248 53.0779 37.3704 52.9489 37.6902C52.8199 38.01 52.6269 38.3037 52.3845 38.5492C52.1422 38.7944 51.8508 38.9911 51.5327 39.1241C51.2145 39.2571 50.8698 39.3262 50.5249 39.3262C50.1802 39.3262 49.8355 39.2569 49.5173 39.1241C49.1992 38.9911 48.9078 38.7944 48.6655 38.5492C48.4231 38.3037 48.23 38.01 48.1011 37.6902C47.9721 37.3704 47.9073 37.0248 47.9116 36.68V30.4461H41.6777C41.3318 30.4527 40.9847 30.3889 40.6634 30.2607C40.3419 30.1326 40.0464 29.9399 39.7996 29.6973C39.5527 29.4549 39.3549 29.1629 39.221 28.8439C39.0871 28.5248 39.0176 28.179 39.0176 27.8329C39.0176 27.4869 39.0871 27.1411 39.221 26.8219C39.3549 26.5028 39.5527 26.2109 39.7996 25.9683C40.0464 25.7259 40.3419 25.5332 40.6634 25.4052C40.9847 25.277 41.3318 25.2136 41.6777 25.2197H47.9116V18.9858C47.9066 18.6373 47.9723 18.2881 48.1034 17.9653C48.2346 17.6424 48.4312 17.3462 48.6776 17.0999C48.9242 16.8535 49.2206 16.6573 49.5435 16.5265C49.8666 16.3955 50.216 16.3302 50.5644 16.3355Z" fill="black"/>
<path fill-rule="evenodd" clip-rule="evenodd" d="M39.8749 0.000304717C40.2168 0.00553195 40.5576 0.078469 40.8715 0.213985C41.1854 0.349501 41.4722 0.547364 41.7104 0.792652C41.9487 1.03794 42.138 1.33051 42.2644 1.64833C42.3906 1.96601 42.4537 2.30875 42.4489 2.65061V5.14705H44.9449C45.2908 5.14052 45.6379 5.2043 45.9593 5.3325C46.2807 5.46057 46.5762 5.65328 46.8231 5.89569C47.0699 6.13824 47.2678 6.43017 47.4016 6.7493C47.5355 7.06842 47.605 7.41423 47.605 7.76027C47.605 8.10631 47.5355 8.45212 47.4016 8.77124C47.2678 9.09023 47.0699 9.38227 46.8231 9.62469C46.5762 9.86723 46.2807 10.06 45.9593 10.188C45.6379 10.3162 45.2908 10.3796 44.9449 10.3735H42.4489V12.8568C42.4532 13.2015 42.3884 13.5472 42.2594 13.8669C42.1304 14.1867 41.9374 14.4806 41.695 14.726C41.4527 14.9713 41.1613 15.1679 40.8432 15.3009C40.525 15.4338 40.1803 15.5029 39.8354 15.5029C39.4907 15.5029 39.146 15.4338 38.8277 15.3009C38.5097 15.1679 38.2183 14.9713 37.976 14.726C37.7336 14.4806 37.5405 14.1867 37.4116 13.8669C37.2826 13.5472 37.2178 13.2015 37.2221 12.8568V10.3735H34.7387C34.3928 10.38 34.0457 10.3162 33.7244 10.188C33.4029 10.06 33.1075 9.86723 32.8606 9.62469C32.6138 9.38227 32.4159 9.09023 32.2821 8.77124C32.1481 8.45212 32.0786 8.10631 32.0786 7.76027C32.0786 7.41423 32.1481 7.06842 32.2821 6.7493C32.4159 6.43017 32.6138 6.13824 32.8606 5.89569C33.1075 5.65328 33.4029 5.46057 33.7244 5.3325C34.0457 5.2043 34.3928 5.14091 34.7387 5.14705H37.2221V2.65061C37.2171 2.30208 37.2828 1.95285 37.4139 1.63006C37.5451 1.30715 37.7417 1.01099 37.9881 0.764656C38.2347 0.518323 38.5311 0.322064 38.854 0.191253C39.1771 0.0603109 39.5265 -0.00505319 39.8749 0.000304717Z" fill="black"/>
<path fill-rule="evenodd" clip-rule="evenodd" d="M61.2543 0.000304717C61.5961 0.00553195 61.937 0.078469 62.2509 0.213985C62.5648 0.349501 62.8516 0.547364 63.0898 0.792652C63.3281 1.03794 63.5174 1.33051 63.6438 1.64833C63.77 1.96601 63.8331 2.30875 63.8283 2.65061V5.14705H66.3243C66.6702 5.14052 67.0173 5.2043 67.3386 5.3325C67.6601 5.46057 67.9556 5.65328 68.2024 5.89569C68.4493 6.13824 68.6472 6.43017 68.781 6.7493C68.9149 7.06842 68.9844 7.41423 68.9844 7.76027C68.9844 8.10631 68.9149 8.45212 68.781 8.77124C68.6472 9.09023 68.4493 9.38227 68.2024 9.62469C67.9556 9.86723 67.6601 10.06 67.3386 10.188C67.0173 10.3162 66.6702 10.3796 66.3243 10.3735H63.8283V12.8568C63.8326 13.2015 63.7678 13.5472 63.6388 13.8669C63.5098 14.1867 63.3168 14.4806 63.0744 14.726C62.8321 14.9713 62.5407 15.1679 62.2226 15.3009C61.9044 15.4338 61.5597 15.5029 61.2148 15.5029C60.8701 15.5029 60.5254 15.4338 60.2071 15.3009C59.8891 15.1679 59.5976 14.9713 59.3554 14.726C59.113 14.4806 58.9199 14.1867 58.791 13.8669C58.662 13.5472 58.5972 13.2015 58.6015 12.8568V10.3735H56.1181C55.7722 10.38 55.4251 10.3162 55.1038 10.188C54.7823 10.06 54.4869 9.86723 54.24 9.62469C53.9931 9.38227 53.7953 9.09023 53.6615 8.77124C53.5275 8.45212 53.458 8.10631 53.458 7.76027C53.458 7.41423 53.5275 7.06842 53.6615 6.7493C53.7953 6.43017 53.9931 6.13824 54.24 5.89569C54.4869 5.65328 54.7823 5.46057 55.1038 5.3325C55.4251 5.2043 55.7722 5.14091 56.1181 5.14705H58.6015V2.65061C58.5965 2.30208 58.6622 1.95285 58.7933 1.63006C58.9245 1.30715 59.1211 1.01099 59.3675 0.764656C59.6141 0.518323 59.9105 0.322064 60.2334 0.191253C60.5565 0.0603109 60.9059 -0.00505319 61.2543 0.000304717Z" fill="black"/>
</svg>
