<svg width="112" height="86" viewBox="0 0 112 86" fill="none" xmlns="http://www.w3.org/2000/svg">
<path d="M85.6748 33.4312C71.1611 33.4312 59.3877 45.1992 59.3877 59.7129C59.3877 74.232 71.1611 86.0001 85.6748 86.0001C100.19 86.0001 111.962 74.232 111.962 59.7129C111.963 45.1992 100.19 33.4312 85.6748 33.4312ZM102.628 65.8345H91.7977V76.6686C91.7977 78.0548 90.6711 79.1774 89.2849 79.1774H82.0648C80.6746 79.1774 79.5506 78.0548 79.5506 76.6686V65.8345H68.7178C67.3316 65.8345 66.2077 64.7119 66.2077 63.323V56.1029C66.2077 54.7167 67.3316 53.5914 68.7178 53.5914H79.5506V42.76C79.5506 41.3724 80.6746 40.2458 82.0648 40.2458H89.2849C90.6711 40.2458 91.7977 41.3724 91.7977 42.76V53.5914H102.628C104.014 53.5914 105.141 54.7167 105.141 56.1029V63.323C105.141 64.7132 104.014 65.8345 102.628 65.8345Z" fill="black"/>
<path d="M48.5829 85.6158L47.9032 85.3108C20.3864 72.9366 5.71075 49.1087 5.09927 48.0999C1.7729 42.9524 0 36.8269 0 30.423C0 13.648 12.2979 0 27.4138 0C35.6427 0 43.3953 4.10109 48.5816 11.0857C53.7691 4.10109 61.5204 0 69.7507 0C84.7555 0 96.7898 13.0392 97.1497 29.6831L97.1992 32.0193L94.9781 31.2927C91.9702 30.3093 88.8405 29.8102 85.676 29.8102C69.1874 29.8102 55.7709 43.2254 55.7709 59.7154C55.7709 65.853 57.624 71.7578 61.131 76.7901L62.1185 78.2071L60.6614 79.133C56.9256 81.5107 53.0908 83.5887 49.2599 85.3108L48.5829 85.6158ZM27.4138 3.31299C14.123 3.31299 3.31031 15.4744 3.31031 30.4244C3.31031 36.19 4.8999 41.6933 7.90514 46.343C8.07373 46.62 22.4644 69.9487 48.5816 81.9804C51.556 80.6116 54.5318 79.0153 57.4568 77.229C54.1826 71.9705 52.4605 65.9507 52.4605 59.7154C52.4605 41.4003 67.3623 26.4985 85.676 26.4985C88.3896 26.4985 91.0804 26.829 93.7029 27.482C92.3836 13.9611 82.0379 3.31299 69.752 3.31299C61.8937 3.31299 54.5037 7.64556 49.9878 14.9018L48.5816 17.1604L47.1753 14.9018C42.6607 7.64556 35.2721 3.31299 27.4138 3.31299Z" fill="black"/>
</svg>
