<svg width="99" height="87" viewBox="0 0 99 87" fill="none" xmlns="http://www.w3.org/2000/svg">
<path d="M43.4549 33.7739C41.0435 20.21 50.0861 7.24889 64.2529 3.63184C59.1288 11.4688 57.9231 20.21 60.033 29.2526C55.2103 24.7313 45.2634 27.1427 43.4549 33.7739ZM45.8662 26.5398C48.8805 24.4299 53.1003 23.827 56.7174 24.7313C56.1146 19.0043 56.7174 13.5787 58.8273 8.45457C51.8947 12.373 46.7705 19.0043 45.8662 26.5398Z" fill="black"/>
<path d="M79.3236 25.0327C74.5009 20.5114 63.9512 22.9227 61.5398 29.2526C59.4299 20.5114 60.3341 12.0716 65.4583 4.23462C73.2952 8.75593 77.2137 17.1957 79.3236 25.0327ZM75.1038 20.5114C73.2952 15.6886 70.281 11.1673 66.3625 7.85167C63.6498 12.6744 62.7455 17.7986 63.3483 23.2241C66.664 20.8128 70.8839 19.6071 75.1038 20.5114Z" fill="black"/>
<path d="M66.3628 3.02904C80.831 0.617672 94.3949 8.75604 98.012 21.7171C93.4907 16.593 83.2424 18.7029 80.831 25.0328C78.7211 16.593 74.5012 7.85178 66.3628 3.02904ZM73.2955 5.13899C77.2139 9.05746 79.9267 14.1816 81.7353 19.3058C84.7495 16.8944 88.9694 15.6887 92.8878 16.2916C88.6679 9.6603 81.1324 5.74183 73.2955 5.13899Z" fill="black"/>
<path d="M66.664 1.22061V1.82345C66.3625 2.12487 65.7597 2.12487 65.1569 2.12487C64.554 2.42629 64.2526 2.42629 63.6497 2.42629V1.82345C63.0469 0.0149216 66.3625 -0.889342 66.664 1.22061Z" fill="black"/>
<path d="M71.7881 25.0327L83.2421 79.5899C83.845 82.3027 80.8308 82.9056 80.2279 80.1928L68.7739 25.6356C69.6782 25.3341 70.5825 25.0327 71.7881 25.0327Z" fill="black"/>
<path d="M56.4158 31.6641C59.7314 31.6641 62.7456 34.3769 62.7456 37.9939C62.7456 41.3095 59.7314 44.0223 56.4158 44.0223C53.1001 44.0223 50.0859 41.3095 50.0859 37.9939C50.0859 34.3769 53.1001 31.6641 56.4158 31.6641Z" fill="black"/>
<path d="M19.341 61.5049H35.0149C35.3163 59.9978 37.1248 58.1893 38.0291 56.9836H26.8765C22.6566 56.9836 22.3552 50.9552 26.2737 50.0509V46.7353C25.068 44.9268 23.8623 42.8168 22.6566 41.0083C25.3694 41.0083 27.7808 41.0083 30.4936 41.0083C29.2879 42.8168 28.0822 44.9268 26.8765 46.7353V50.0509H43.7561L47.0717 46.1325C51.2916 41.0083 59.1286 47.3381 54.9087 52.4623L43.7561 66.3277C42.8518 67.2319 41.3447 68.1362 40.139 68.1362H20.8481L5.77704 82.9058C2.76283 86.2215 -2.05991 81.3987 0.954301 78.0831L16.9296 62.4092C17.5325 61.8064 18.4367 61.5049 19.341 61.5049ZM28.0822 43.4197L28.9865 41.6111H24.1637L24.7666 42.8168L28.0822 43.4197Z" fill="black"/>
<path d="M23.2593 73.2604H44.3587C51.8943 63.3135 59.7312 53.668 67.2667 44.0225C68.7738 42.214 71.1852 44.324 69.9795 46.1325L50.6886 70.5476L54.9085 84.7144C55.5113 86.8243 52.1957 87.7286 51.5928 85.6186L50.3872 81.7002H18.738L14.2166 86.5229C12.7095 88.03 10.2982 85.6186 11.8053 84.1115L22.0536 73.5618C22.355 73.2604 22.9579 73.2604 23.2593 73.2604ZM49.4829 78.686L47.9758 73.8632L46.4687 75.6717C46.1673 76.2746 45.5644 76.576 45.263 76.576H24.1635L21.7522 78.686H49.4829Z" fill="black"/>
</svg>
