<svg width="90" height="91" viewBox="0 0 90 91" fill="none" xmlns="http://www.w3.org/2000/svg">
<path fill-rule="evenodd" clip-rule="evenodd" d="M0 9.49997H20.2166V15.3415C20.2166 19.2358 23.3979 22.5153 27.4002 22.5153C31.2999 22.5153 34.4812 19.2358 34.4812 15.3415V9.49997H55.5188V14.4191C55.5188 18.3135 58.7001 21.4905 62.5998 21.4905C66.6021 21.4905 69.7833 18.3135 69.7833 14.4191V9.49997H90V90.4614H0V9.49997ZM56.0319 58.6917L47.4116 55.3098L53.2611 50.4931L46.6933 48.0335L34.7891 50.1856L19.9088 44.2416C14.0593 41.8845 1.94983 46.4962 9.5439 49.4682L32.1209 57.9743L44.333 73.3467L54.0821 77.1386L47.1038 63.7134L52.4401 65.763C55.8267 66.9928 59.9316 67.7102 62.9076 66.3779L75.6328 60.024L78.5063 63.0985L82.8164 64.7382L78.4036 58.7942L80.764 57.9743L75.8381 56.1296L56.0319 58.6917ZM27.4002 2.01872C29.8632 2.01872 31.813 3.9659 31.813 6.42548V15.3415C31.813 17.8011 29.8632 19.8507 27.4002 19.8507C24.9373 19.8507 22.8848 17.8011 22.8848 15.3415V6.42548C22.8848 3.9659 24.9373 2.01872 27.4002 2.01872ZM62.5998 0.993896C60.1368 0.993896 58.187 3.04355 58.187 5.50314V14.4191C58.187 16.8787 60.1368 18.8259 62.5998 18.8259C65.0627 18.8259 67.1152 16.8787 67.1152 14.4191V5.50314C67.1152 3.04355 65.0627 0.993896 62.5998 0.993896ZM4.82326 32.2511H85.1767V85.6447H4.82326V32.2511Z" fill="black"/>
</svg>
