<svg width="33" height="50" viewBox="0 0 33 50" fill="none" xmlns="http://www.w3.org/2000/svg">
<path d="M9.45605 47.6266L11.157 46.4743L11.3659 49.4902C13.5293 49.4902 13.0365 49.4902 14.9716 49.4902C16.9072 49.4902 16.4138 49.4902 18.167 49.4902V41.7596H19.4809L20.0195 49.4902C22.1829 49.4902 20.969 49.4902 22.9041 49.4902C24.8397 49.4902 22.9041 49.4902 25.7886 49.4902L26.4909 39.5689V34.2V24.8393C26.6587 25.1843 26.828 25.5795 26.9952 26.0404C27.7941 28.2553 28.4665 31.8887 28.4637 37.5607C28.4643 39.1244 28.4138 40.8417 28.3038 42.7272C28.2307 43.9773 29.1857 45.0503 30.4359 45.1229C30.4807 45.1257 30.5255 45.1269 30.57 45.1269C31.762 45.1269 32.7619 44.1967 32.8322 42.9914C32.9461 41.0263 33 39.2213 33 37.5609C32.9884 29.0051 31.6214 24.2692 29.7581 21.4222C28.8268 20.0082 27.7371 19.1016 26.731 18.5995C25.7615 18.1111 24.9099 18.0011 24.3988 17.9948C24.3656 17.9931 24.333 17.9897 24.2996 17.9897H13.348C13.3182 17.9897 13.289 17.9931 13.2596 17.9943C12.8111 17.9991 12.0973 18.0813 11.2655 18.4368C10.7022 18.6727 10.1032 19.0367 9.51218 19.5478C8.73968 20.216 7.9808 21.1359 7.33133 22.3546C6.17245 24.5107 5.27409 27.5786 4.86955 32.1098C4.86899 32.1161 4.86955 32.122 4.86899 32.128C4.80719 32.8242 4.75814 33.5573 4.72186 34.325C4.67367 35.3387 4.64702 36.4145 4.64673 37.5618C4.6473 39.2213 4.70031 41.0263 4.81569 42.9917C4.886 44.197 5.88585 45.1271 7.0779 45.1271C7.12212 45.1271 7.16691 45.1254 7.21199 45.1232C8.46272 45.0495 9.41664 43.9759 9.34379 42.7263C9.23295 40.8411 9.18277 39.1246 9.18277 37.5615C9.18277 36.2867 9.21679 35.1167 9.27802 34.0406C9.30807 33.5117 9.34407 33.0036 9.38688 32.52C9.38716 32.5166 9.38801 32.5135 9.3883 32.5101C9.40927 32.27 9.43224 32.0375 9.45633 31.8082C9.81437 28.3902 10.4922 26.1966 11.1572 24.8319V33.4635L9.8294 34.3627C9.81154 34.7088 9.79708 35.0612 9.78546 35.4198L11.0773 34.545L16.1644 42.0556L6.65834 48.4938L1.57121 40.9837L4.10046 39.2706C4.09366 38.9271 4.08884 38.5889 4.08572 38.2532L0.389648 40.7567L6.43099 49.6759L9.45605 47.6266ZM17.7466 20.3098H18.8241H19.901L20.4397 22.4359L20.3577 22.5652C19.9141 22.9354 19.3704 23.1208 18.8235 23.1214C18.277 23.1208 17.7341 22.9357 17.2907 22.5666L17.2079 22.4359L17.7466 20.3098ZM17.6819 23.7623C18.0496 23.9001 18.4366 23.9721 18.8232 23.9718H18.8255C19.2119 23.9718 19.5983 23.8998 19.9654 23.7621L21.5172 35.1927L18.8241 38.5945L16.131 35.1927L17.6819 23.7623Z" fill="#2E3A59"/>
<path d="M10.4458 37.2729L9.98145 37.5978L13.1036 42.0602L13.568 41.7354L10.4458 37.2729Z" fill="#2E3A59"/>
<path d="M9.80859 40.5468C9.82135 40.8946 9.83552 41.2441 9.85225 41.5996L11.1146 43.4071L11.5795 43.0825L9.80859 40.5468Z" fill="#2E3A59"/>
<path d="M19.8638 16.2884C22.8914 15.7915 25.2018 13.1638 25.2018 9.9959C25.2018 9.68549 25.1783 9.38046 25.1358 9.08167H12.5114C12.4688 9.38046 12.4453 9.6852 12.4453 9.9959C12.4453 13.1641 14.7557 15.7915 17.7833 16.2884C18.1218 16.344 18.4694 16.3743 18.8237 16.3743C19.1781 16.3743 19.5253 16.3443 19.8638 16.2884Z" fill="#2E3A59"/>
<path d="M12.1524 6.80378C11.6801 6.80378 11.2974 7.18705 11.2974 7.65991C11.2974 8.13219 11.6801 8.5149 12.1524 8.5149H12.2663H25.3809H25.4943C25.9671 8.5149 26.3498 8.13219 26.3498 7.65991C26.3498 7.18705 25.9671 6.80378 25.4943 6.80378H25.3766C25.3715 6.61271 25.3593 6.42363 25.3384 6.23681C25.1204 4.29438 24.055 2.6085 22.5188 1.55875V2.08207C22.5188 2.4557 22.2161 2.75931 21.8421 2.75931C21.4682 2.75931 21.1649 2.45598 21.1649 2.08207V0.850326C20.6393 0.649052 20.0814 0.512413 19.5003 0.452881V2.08207C19.5003 2.4557 19.1975 2.75931 18.8236 2.75931C18.4494 2.75931 18.1463 2.45598 18.1463 2.08207V0.452881C17.5652 0.512413 17.0073 0.649052 16.4814 0.850326V2.08178C16.4814 2.45542 16.1787 2.75903 15.8042 2.75903C15.4306 2.75903 15.1275 2.4557 15.1275 2.08178V1.55904C13.5919 2.60878 12.5263 4.29438 12.3086 6.23681C12.2879 6.42363 12.2754 6.61271 12.2703 6.80378H12.1524Z" fill="#2E3A59"/>
</svg>
