<svg width="50" height="54" viewBox="0 0 50 54" fill="none" xmlns="http://www.w3.org/2000/svg">
<path d="M44.0883 20.1527H50V53.4535H44.0883V20.1527Z" fill="#2E3A59"/>
<path fill-rule="evenodd" clip-rule="evenodd" d="M39.9238 25.3271C37.7452 25.3271 35.8388 25.3271 33.9325 25.3271C33.9325 34.5865 33.9325 44.1182 33.9325 53.6499C35.8388 53.6499 37.7452 53.6499 39.9238 53.6499C39.9238 44.1182 39.9238 34.5865 39.9238 25.3271Z" fill="#2E3A59"/>
<path fill-rule="evenodd" clip-rule="evenodd" d="M29.5747 30.229C27.6684 30.229 25.762 30.229 23.8557 30.229C23.8557 37.8544 23.8557 45.7521 23.8557 53.6497C25.762 53.6497 27.6684 53.6497 29.5747 53.6497C29.5747 45.7521 29.5747 37.8544 29.5747 30.229Z" fill="#2E3A59"/>
<path fill-rule="evenodd" clip-rule="evenodd" d="M19.499 35.1311C17.5927 35.1311 15.6863 35.1311 13.78 35.1311C13.78 41.3948 13.78 47.3861 13.78 53.6498C15.6863 53.6498 17.5927 53.6498 19.499 53.6498C19.499 47.3861 19.499 41.3948 19.499 35.1311Z" fill="#2E3A59"/>
<path d="M3.51067 40.0332H9.42236V53.4339H3.51067V40.0332Z" fill="#2E3A59"/>
<path fill-rule="evenodd" clip-rule="evenodd" d="M50 0L36.928 6.53602L41.013 8.98703C30.1196 19.0634 17.0476 25.8717 1.79685 29.9568C-1.47116 30.7738 0.162849 35.4034 3.15852 34.5864C19.7709 30.2291 33.9323 22.6037 45.3703 11.9827L49.7277 14.706L50 0Z" fill="#2E3A59"/>
</svg>
