<svg width="63" height="52" viewBox="0 0 63 52" fill="none" xmlns="http://www.w3.org/2000/svg">
<path d="M53.737 2.36574C53.737 1.15193 54.7198 0.168584 55.9311 0.168584C57.1425 0.168584 58.1246 1.15254 58.1246 2.36574C58.1246 3.57894 57.1419 4.56289 55.9311 4.56289C54.7192 4.56289 53.737 3.57955 53.737 2.36574ZM34.1937 10.8501C37.1382 10.8501 39.5259 8.45877 39.5259 5.50936C39.5259 2.55995 37.1382 0.169198 34.1937 0.169198C31.2486 0.169198 28.8609 2.55995 28.8609 5.50936C28.8609 8.45877 31.248 10.8501 34.1937 10.8501ZM9.67225 6.58366C11.441 6.58366 12.8749 5.14737 12.8749 3.37551C12.8749 1.60365 11.441 0.167969 9.67225 0.167969C7.90346 0.167969 6.46962 1.60365 6.46962 3.37551C6.46962 5.14737 7.90346 6.58366 9.67225 6.58366ZM62.101 19.9614C62.101 20.8077 59.3347 21.4936 55.9225 21.4936C53.8483 21.4936 52.0143 21.2398 50.8933 20.8507L45.2072 22.0811C45.2072 22.0811 45.4862 22.9778 45.5015 23.0786C45.5194 23.1942 45.3344 29.8274 45.3344 29.8274C45.3092 30.8956 44.4119 31.7437 43.3511 31.7437C42.2682 31.7179 41.3887 30.8175 41.4145 29.7334L41.5971 23.6662C41.5971 23.6662 41.5 23.3669 41.3525 22.9145L39.4773 23.3201L39.4681 44.7859C45.1684 45.3138 49.2278 46.677 49.2278 48.2749C49.2278 50.3326 42.5054 51.9999 34.2116 51.9999C25.9183 51.9999 19.1959 50.3326 19.1959 48.2749C19.1959 47.1502 21.2105 46.1417 24.3923 45.4589L12.4987 31.1857C11.6064 31.2588 10.6531 31.3 9.66118 31.3C4.67994 31.2994 0.64209 30.2976 0.64209 29.0623C0.64209 28.1023 3.08016 27.2836 6.50404 26.9665L6.49789 11.7671C6.49789 11.5348 6.44688 11.2484 6.21272 11.2484C6.21272 11.2496 5.22508 14.2826 5.22508 14.2826L5.33386 17.9265C5.34923 18.578 4.83482 19.1182 4.18458 19.1336C4.17475 19.1336 4.16553 19.1336 4.15569 19.1336C3.51898 19.1336 2.99474 18.6241 2.97937 17.9824C2.97937 17.9824 2.8669 14.0269 2.87305 13.9747C2.88165 13.8985 4.47405 8.91603 4.47405 8.91603C4.56255 8.64192 4.7709 8.39916 4.99645 8.25719C5.69463 7.83804 7.10388 7.27938 8.60102 7.17428H10.7459C12.2431 7.27938 13.6529 7.83865 14.3511 8.2578C14.5754 8.39977 14.7838 8.64315 14.8711 8.91603C14.8711 8.91603 16.4635 13.8967 16.4714 13.9747C16.4776 14.0263 16.3633 17.9824 16.3633 17.9824C16.3485 18.6241 15.8243 19.1336 15.187 19.1336C15.1771 19.1336 15.1679 19.1336 15.1581 19.1336C14.5078 19.1182 13.9934 18.5774 14.0088 17.9265L14.1188 14.2826L13.133 11.2496C12.8982 11.249 12.8478 11.5348 12.8478 11.7671L12.8417 26.969C14.3314 27.1085 15.6331 27.342 16.6275 27.6426L22.9431 26.1024C22.9431 26.1024 22.8662 23.2304 22.8791 23.1321C22.8945 23.0135 25.5397 14.7331 25.5397 14.7331C25.686 14.2783 26.0326 13.8739 26.4063 13.6367C27.5685 12.9391 29.9162 12.0086 32.4083 11.8323H35.9797C38.4731 12.008 40.8184 12.9373 41.9818 13.6348C42.3567 13.8721 42.7046 14.2759 42.8508 14.7325L44.8403 20.9331L49.7582 19.8686C49.9063 19.2516 51.527 18.7329 53.7622 18.5251L53.7561 8.11337C53.7561 7.9542 53.7211 7.75876 53.5606 7.75876C53.5606 7.75937 52.8858 9.83668 52.8858 9.83668L52.9614 12.3331C52.9725 12.7793 52.6197 13.1493 52.1748 13.1604C52.168 13.1604 52.1618 13.1604 52.1551 13.1604C51.7187 13.1604 51.3592 12.8113 51.3487 12.3719C51.3487 12.3719 51.2707 9.65845 51.2762 9.61912C51.2824 9.57302 52.3696 6.16205 52.3696 6.16205C52.4298 5.97338 52.5724 5.80805 52.7273 5.71033C53.2048 5.42332 54.1709 5.04104 55.1967 4.96852H56.6662C57.6913 5.04104 58.6574 5.42393 59.1356 5.71095C59.2892 5.80805 59.4318 5.97522 59.4921 6.16205C59.4921 6.16205 60.5805 9.56995 60.5866 9.61912L58.977 9.8373L58.301 7.75999C58.1406 7.75937 58.1062 7.95481 58.1062 8.11399L58.1018 18.5276C60.4385 18.7458 62.101 19.305 62.101 19.9614ZM33.7543 44.5536C33.9067 44.5524 34.4924 44.5524 34.6319 44.553V31.6509H33.7543V44.5536ZM26.7904 23.6668L26.8353 25.1522L28.9095 24.6464L28.9076 19.479C28.9076 19.0918 28.8234 18.6161 28.4326 18.6179L26.7904 23.6668ZM9.4092 26.8264C9.49279 26.8258 9.57698 26.8258 9.66118 26.8258C9.75337 26.8258 9.84494 26.8258 9.9359 26.827V19.0776H9.4092V26.8264ZM15.6669 28.6892C15.6669 28.1895 14.5373 27.7501 12.8398 27.503C12.8232 28.2848 12.1798 28.9141 11.3882 28.9141C10.5855 28.9141 9.93529 28.2682 9.93529 27.4723V27.2922C9.84433 27.2916 9.75276 27.291 9.66057 27.291C9.57575 27.291 9.49217 27.2916 9.40859 27.2922V27.4723C9.40859 28.2682 8.75835 28.9141 7.9557 28.9141C7.16288 28.9141 6.5194 28.2836 6.50465 27.5C4.79425 27.7458 3.6548 28.1865 3.6548 28.6892C3.6548 29.4617 6.34363 30.0868 9.66057 30.0868C12.9775 30.0868 15.6669 29.4617 15.6669 28.6892ZM26.9883 45.0108C27.6066 44.926 28.25 44.8523 28.9175 44.7902L28.9101 25.8824L26.8727 26.379L26.9742 29.7334C27 30.8175 26.1193 31.7179 25.037 31.7437C23.9756 31.7437 23.0789 30.8956 23.0537 29.8274L22.9787 27.3291L18.3472 28.4587C18.5641 28.6511 18.6803 28.8539 18.6803 29.0623C18.6803 29.7832 17.3054 30.4236 15.1728 30.8323L26.9883 45.0108ZM39.4669 45.6746C39.4429 46.9787 38.3705 48.0291 37.0503 48.0291C35.7142 48.0291 34.6313 46.9542 34.6313 45.6285V45.3298C34.4918 45.3286 33.9055 45.3286 33.7537 45.3298V45.6285C33.7537 46.9542 32.6708 48.0291 31.3353 48.0291C30.0176 48.0291 28.947 46.9818 28.9187 45.6801C26.0922 46.0913 24.2122 46.822 24.2122 47.6548C24.2122 48.9405 28.6895 49.9822 34.2122 49.9822C39.7349 49.9822 44.2121 48.9405 44.2121 47.6548C44.2121 46.8177 42.3149 46.0845 39.4669 45.6746ZM40.98 21.7683C40.5135 20.3363 39.9543 18.6173 39.9543 18.6161C39.564 18.6161 39.4792 19.0918 39.4792 19.479L39.478 22.0928L40.98 21.7683ZM55.7504 18.4292C55.8076 18.4292 56.0485 18.4292 56.1112 18.4292V13.1204H55.7504V18.4292ZM60.0378 19.7058C60.0378 19.3628 59.2634 19.0623 58.1012 18.8933C58.0896 19.4292 57.6495 19.86 57.1068 19.86C56.5568 19.86 56.1118 19.4175 56.1118 18.8724V18.7495C56.0491 18.7488 55.8082 18.7488 55.751 18.7495V18.8724C55.751 19.4181 55.3055 19.86 54.7554 19.86C54.2127 19.86 53.7715 19.428 53.7616 18.8908C52.5902 19.0592 51.8097 19.3616 51.8097 19.7058C51.8097 20.2343 53.651 20.6633 55.9231 20.6633C58.1953 20.6633 60.0378 20.2343 60.0378 19.7058ZM58.9008 12.3325C58.8904 12.7787 59.2431 13.1487 59.6881 13.1598C59.6949 13.1598 59.701 13.1598 59.7078 13.1598C60.1441 13.1598 60.503 12.8107 60.5141 12.3712C60.5141 12.3712 60.5916 9.65784 60.586 9.6185L58.9764 9.83668L58.9008 12.3325ZM25.0364 31.7437C25.0204 31.7443 25.0523 31.7437 25.0364 31.7437V31.7437Z" fill="#2E3A59"/>
</svg>
