<svg width="65" height="61" viewBox="0 0 65 61" fill="none" xmlns="http://www.w3.org/2000/svg">
<path fill-rule="evenodd" clip-rule="evenodd" d="M41.8994 47.1733V57.7267C41.8994 59.094 40.7884 60.2 39.4179 60.2H9.87559C8.50302 60.2 7.39404 59.0926 7.39404 57.7267V37.8318C7.79222 37.9129 8.20435 37.9554 8.62638 37.9554C9.04841 37.9554 9.46053 37.9129 9.85871 37.8318V50.3135H39.4348V48.2518C39.6639 48.1932 39.889 48.1134 40.1068 48.0115L41.8994 47.1733ZM41.8994 10.1615V3.35456C41.8994 1.98857 40.7905 0.881226 39.4179 0.881226H9.87559C8.50507 0.881226 7.39404 1.9872 7.39404 3.35456V25.721C7.79222 25.6399 8.20435 25.5974 8.62638 25.5974C9.04841 25.5974 9.46053 25.6399 9.85871 25.721V5.82446H39.4348V12.6316L41.8994 10.1615ZM24.6467 57.7284C26.0079 57.7284 27.1114 56.6218 27.1114 55.2568C27.1114 53.8917 26.0079 52.7851 24.6467 52.7851C23.2855 52.7851 22.1821 53.8917 22.1821 55.2568C22.1821 56.6218 23.2855 57.7284 24.6467 57.7284Z" fill="#2E3A59"/>
<path d="M4.92952 15.7109C6.29072 15.7109 7.39419 14.6043 7.39419 13.2393C7.39419 11.8743 6.29072 10.7677 4.92952 10.7677C3.56831 10.7677 2.46484 11.8743 2.46484 13.2393C2.46484 14.6043 3.56831 15.7109 4.92952 15.7109Z" fill="#2E3A59"/>
<path d="M2.46467 23.1258C3.82587 23.1258 4.92934 22.0193 4.92934 20.6542C4.92934 19.2892 3.82587 18.1826 2.46467 18.1826C1.10347 18.1826 0 19.2892 0 20.6542C0 22.0193 1.10347 23.1258 2.46467 23.1258Z" fill="#2E3A59"/>
<path d="M16.0203 28.069C18.0621 28.069 19.7173 26.4091 19.7173 24.3616C19.7173 22.314 18.0621 20.6542 16.0203 20.6542C13.9784 20.6542 12.3232 22.314 12.3232 24.3616C12.3232 26.4091 13.9784 28.069 16.0203 28.069Z" fill="#2E3A59"/>
<path d="M8.62621 35.4838C10.668 35.4838 12.3232 33.8239 12.3232 31.7764C12.3232 29.7288 10.668 28.069 8.62621 28.069C6.58441 28.069 4.9292 29.7288 4.9292 31.7764C4.9292 33.8239 6.58441 35.4838 8.62621 35.4838Z" fill="#2E3A59"/>
<path d="M17.2526 42.8987C19.975 42.8987 22.1819 40.6855 22.1819 37.9554C22.1819 35.2254 19.975 33.0122 17.2526 33.0122C14.5302 33.0122 12.3232 35.2254 12.3232 37.9554C12.3232 40.6855 14.5302 42.8987 17.2526 42.8987Z" fill="#2E3A59"/>
<path fill-rule="evenodd" clip-rule="evenodd" d="M39.8628 37.2193L43.8755 42.181C44.3086 42.7166 44.1776 43.3763 43.5526 43.6688L39.0623 45.7699C38.4508 46.056 37.6113 45.8628 37.1709 45.3182L33.1582 40.3566L39.8628 37.2193Z" fill="#2E3A59"/>
<path fill-rule="evenodd" clip-rule="evenodd" d="M25.4443 36.3123C25.9062 37.3063 27.1028 37.7274 28.0775 37.2713L32.9858 34.9746L29.8648 28.2584L24.9565 30.5551C23.9641 31.0194 23.5424 32.2194 23.996 33.1957L25.4443 36.3123Z" fill="#2E3A59"/>
<path fill-rule="evenodd" clip-rule="evenodd" d="M28.7194 37.5088C29.1811 38.5023 30.3489 38.9363 31.3649 38.4609L36.2619 36.1695L31.0591 24.9737L26.1621 27.2651C25.1627 27.7327 24.7267 28.917 25.1885 29.9106L28.7194 37.5088Z" fill="#2E3A59"/>
<path d="M56.592 18.4865L54.3575 19.532C53.7404 19.8208 53.4731 20.5558 53.7603 21.1739C54.0475 21.7919 54.7805 22.0589 55.3976 21.7701L57.6321 20.7246C58.2491 20.4359 58.5165 19.7008 58.2293 19.0828C57.9421 18.4648 57.209 18.1978 56.592 18.4865Z" fill="#2E3A59"/>
<path fill-rule="evenodd" clip-rule="evenodd" d="M49.6998 17.1954C49.1787 16.7572 49.0956 15.9967 49.5566 15.4463L51.1275 13.5702C51.5695 13.0424 52.3655 12.9825 52.8714 13.4079C53.3926 13.8461 53.4756 14.6066 53.0147 15.1571L51.4438 17.0331C51.0018 17.5609 50.2057 17.6208 49.6998 17.1954Z" fill="#2E3A59"/>
<path fill-rule="evenodd" clip-rule="evenodd" d="M54.1902 26.8501C54.1898 27.5324 54.717 28.0851 55.4334 28.0846L57.8754 28.0829C58.5625 28.0824 59.1198 27.509 59.1203 26.8467C59.1208 26.1644 58.5935 25.6117 57.8771 25.6122L55.4352 25.6139C54.7481 25.6144 54.1907 26.1878 54.1902 26.8501Z" fill="#2E3A59"/>
<path fill-rule="evenodd" clip-rule="evenodd" d="M38.4964 35.1517C38.7786 35.7589 39.5534 36.2027 40.2332 36.1424L53.3844 34.9763L42.9784 12.5841L33.6347 21.9435C33.1537 22.4253 33.0009 23.3261 33.2747 23.9153L38.4964 35.1517Z" fill="#2E3A59"/>
<path fill-rule="evenodd" clip-rule="evenodd" d="M52.263 35.5041C52.5513 36.1242 53.3038 36.3841 53.9035 36.1036C54.5213 35.8147 54.7828 35.0659 54.5002 34.4578L44.0896 12.0645C43.8014 11.4444 43.0488 11.1845 42.4491 11.465C41.8314 11.7539 41.5698 12.5028 41.8525 13.1109L52.263 35.5041Z" fill="#2E3A59"/>
</svg>
