<svg width="60" height="60" viewBox="0 0 60 60" fill="none" xmlns="http://www.w3.org/2000/svg">
<path d="M35.5746 13.1946H8.8147V17.5321H35.5746V13.1946Z" fill="#030104"/>
<path d="M48.6817 45.8071C50.7561 42.1427 50.1546 37.4735 47.1372 34.4594C45.3521 32.6743 42.9785 31.6891 40.4456 31.6891C37.9127 31.6891 35.5358 32.6743 33.7508 34.4594C31.9657 36.2444 30.9805 38.618 30.9805 41.1542C30.9805 43.6806 31.9657 46.0575 33.7508 47.8491C35.5358 49.6276 37.9094 50.6128 40.4391 50.6128C42.0876 50.6128 43.6841 50.1934 45.1018 49.3935L55.7082 59.9999L59.2881 56.4168L48.6817 45.8071ZM44.4287 45.1341C42.3087 47.254 38.589 47.254 36.469 45.1341C34.2742 42.936 34.2742 39.3691 36.469 37.1711C37.529 36.1111 38.9467 35.5259 40.4521 35.5259C41.9575 35.5259 43.3687 36.1111 44.4319 37.1711C45.4952 38.2311 46.0805 39.6488 46.0805 41.1542C46.0805 42.6597 45.4919 44.0708 44.4287 45.1341Z" fill="#030104"/>
<path d="M43.3491 52.9995H6.03812C5.44635 52.9995 4.96838 52.5183 4.96838 51.933V5.32596C4.96838 4.73419 5.44635 4.25622 6.03812 4.25622H43.3491C43.9409 4.25622 44.4156 4.73419 44.4156 5.32596V29.101C45.9601 29.4391 47.4005 30.0992 48.6751 31.0421V5.32596C48.6751 2.38986 46.2885 0 43.3491 0H6.03812C3.10201 0 0.712158 2.38986 0.712158 5.32596V51.933C0.712158 54.8659 3.10201 57.2557 6.03812 57.2557H43.3491C45.5764 57.2557 46.6299 56.729 47.4233 54.7846L45.4919 52.8532C44.7798 53.1523 43.6548 52.9995 43.3491 52.9995Z" fill="#030104"/>
<path d="M35.5746 25.4203H8.8147V29.7578H35.5746V25.4203Z" fill="#030104"/>
</svg>
