<svg width="52" height="50" viewBox="0 0 52 50" fill="none" xmlns="http://www.w3.org/2000/svg">
<path d="M23.6934 28.7675C23.6934 30.264 24.9144 31.4814 26.4152 31.4814C27.916 31.4814 29.137 30.264 29.137 28.7675C29.137 27.2711 27.916 26.0536 26.4152 26.0536C24.9144 26.0536 23.6934 27.2711 23.6934 28.7675Z" fill="#2E3A59"/>
<path d="M26.9595 10.8557V25.0075C28.8036 25.2717 30.2257 26.857 30.2257 28.7675C30.2257 30.8626 28.5163 32.567 26.4152 32.567C24.314 32.567 22.6046 30.8626 22.6046 28.7675C22.6046 26.8568 24.0267 25.2717 25.8708 25.0075V10.8557H24.5992L16.1582 30.845L21.3898 37.1046C21.4913 37.226 21.5346 37.3854 21.5086 37.5413L20.344 44.5083H32.4864L31.3219 37.5413C31.2959 37.3853 31.3391 37.226 31.4407 37.1046L36.6722 30.845L28.2311 10.8557H26.9595Z" fill="#2E3A59"/>
<path d="M20.1624 45.5938L19.4365 49.936H33.3935L32.6678 45.5938H20.1624Z" fill="#2E3A59"/>
<path d="M44.9233 7.59896H51.4556C51.7563 7.59896 52 7.3559 52 7.05618V0.542783C52 0.243058 51.7563 0 51.4556 0H44.9233C44.6226 0 44.3789 0.243058 44.3789 0.542783V3.2567H30.2256V0.542783C30.2256 0.243058 29.9819 0 29.6812 0H23.1489C22.8483 0 22.6045 0.243058 22.6045 0.542783V3.2567H8.45113V0.542783C8.45113 0.243058 8.20737 0 7.90677 0H1.37444C1.07384 0 0.830078 0.243058 0.830078 0.542783V7.05618C0.830078 7.3559 1.07384 7.59896 1.37444 7.59896H7.90677C8.20737 7.59896 8.45113 7.3559 8.45113 7.05618V4.34226H19.5024C16.178 5.41556 13.1582 7.25788 10.6337 9.77509C7.34368 13.0556 5.20206 17.1741 4.42101 21.7113H1.37444C1.07384 21.7113 0.830078 21.9544 0.830078 22.2541V28.7675C0.830078 29.0673 1.07384 29.3103 1.37444 29.3103H7.90677C8.20737 29.3103 8.45113 29.0673 8.45113 28.7675V22.2541C8.45113 21.9544 8.20737 21.7113 7.90677 21.7113H5.5278C7.09469 13.1224 13.9907 6.24646 22.6045 4.68411V7.05618C22.6045 7.3559 22.8483 7.59896 23.1489 7.59896H29.6812C29.9819 7.59896 30.2256 7.3559 30.2256 7.05618V4.68411C38.8394 6.24656 45.7354 13.1224 47.3023 21.7113H44.9233C44.6226 21.7113 44.3789 21.9544 44.3789 22.2541V28.7675C44.3789 29.0673 44.6226 29.3103 44.9233 29.3103H51.4556C51.7563 29.3103 52 29.0673 52 28.7675V22.2541C52 21.9544 51.7563 21.7113 51.4556 21.7113H48.4091C47.628 17.1741 45.4864 13.0556 42.1965 9.77509C39.672 7.25788 36.6521 5.41556 33.3277 4.34226H44.3789V7.05618C44.3789 7.3559 44.6226 7.59896 44.9233 7.59896Z" fill="#2E3A59"/>
</svg>
