<svg width="55" height="61" viewBox="0 0 55 61" fill="none" xmlns="http://www.w3.org/2000/svg">
<path d="M17.3181 24.6708C18.2372 24.6708 19.1079 24.6708 20.027 24.6708C20.1238 24.6708 20.2205 24.6708 20.3173 24.7192C20.7043 26.5574 21.3815 28.2505 22.3974 29.7501C22.349 29.8468 22.2522 29.9436 22.1071 30.0887C21.5266 30.7175 20.8978 31.298 20.2689 31.9269C21.3815 33.4265 22.6876 34.781 24.2356 35.8452C24.8644 35.2163 25.5417 34.5875 26.1705 33.9102C26.2673 33.8135 26.3157 33.7651 26.4124 33.7167C27.912 34.6842 29.6051 35.4098 31.4433 35.7968C31.4433 35.8452 31.4433 35.8936 31.4433 35.9903C31.4433 36.4741 31.4433 36.9578 31.4433 37.4415C31.4433 37.8769 31.4433 38.3607 31.4433 38.796C32.314 38.9411 33.2332 38.9895 34.1523 38.9895C35.0714 38.9895 35.9905 38.8928 36.8612 38.796C36.8612 38.3607 36.8612 37.8769 36.8612 37.4415C36.8612 36.9578 36.8612 36.4741 36.8612 35.9903C36.8612 35.8936 36.8612 35.8452 36.8612 35.7968C38.6994 35.4582 40.3925 34.7326 41.8921 33.7167C41.9889 33.7651 42.0372 33.8135 42.134 33.9102C42.7628 34.5875 43.4401 35.2163 44.069 35.8452C45.5685 34.781 46.923 33.4265 48.0356 31.9269C47.4068 31.3464 46.8263 30.7175 46.1974 30.0887C46.0523 29.9436 45.9555 29.8468 45.9072 29.7501C46.923 28.2505 47.6486 26.5574 47.9873 24.7192C48.084 24.7192 48.1807 24.6708 48.2775 24.6708C49.1966 24.7192 50.0673 24.6708 50.9864 24.6708H51.0348C51.1799 23.7517 51.2767 22.8326 51.2767 21.8651C51.2767 20.8976 51.1799 19.9785 51.0348 19.1078C50.9864 19.1078 50.9864 19.1078 50.9381 19.1078C50.019 19.1078 49.0515 19.1078 48.1324 19.1078C48.084 19.1078 48.084 19.1078 48.0356 19.1078C47.6486 17.2695 46.923 15.5281 45.9072 14.0285C45.9555 13.9801 46.0039 13.9317 46.0523 13.8834C46.6812 13.3029 47.2616 12.674 47.8905 12.0935C47.9873 12.0451 48.0356 11.9484 48.084 11.9C47.0198 10.4004 45.6653 9.09433 44.1657 8.0301L44.1173 8.07847C43.4885 8.75571 42.8112 9.38457 42.1824 10.0618C42.134 10.1102 42.0856 10.1586 42.0372 10.2069C41.0214 9.52969 39.9572 8.99758 38.7962 8.61059V14.6573C38.9413 14.7541 39.1348 14.8508 39.2799 14.9476C40.0539 15.4797 40.7311 16.1569 41.2633 16.9309C42.0372 17.9952 42.5694 19.2529 42.7628 20.6074C42.8596 21.0427 42.8596 21.5265 42.8596 22.0102C42.8596 22.494 42.8112 22.9777 42.7628 23.4131C42.521 24.7675 42.0372 25.9769 41.2633 27.0411C40.7311 27.8151 40.0539 28.4923 39.2799 29.0245C38.2157 29.7984 37.0063 30.3306 35.6519 30.5241C35.2165 30.5724 34.7327 30.6208 34.2974 30.6208C33.862 30.6208 33.3783 30.5724 32.8945 30.5241C31.5401 30.3306 30.3307 29.7984 29.2665 29.0245C28.4925 28.4923 27.8153 27.8151 27.2831 27.0411C26.5092 25.9769 25.977 24.7675 25.7835 23.4131C25.5417 22.8326 25.4933 22.3488 25.4933 21.8651C25.4933 21.3813 25.5417 20.8976 25.59 20.4622C25.8319 19.1078 26.364 17.85 27.138 16.7858C27.6701 16.0118 28.3474 15.383 29.1214 14.8025C29.2665 14.7057 29.4116 14.609 29.6051 14.5122V8.51384C28.4441 8.90083 27.3799 9.43295 26.364 10.1102C26.3157 10.0618 26.2673 10.0618 26.2189 9.96506C25.59 9.28782 24.9128 8.65896 24.2839 7.98172L24.2356 7.93335C22.736 8.99758 21.4299 10.3037 20.3173 11.8033C20.3656 11.8517 20.414 11.9 20.5108 11.9968C21.0913 12.5773 21.7201 13.2061 22.349 13.7866C22.3974 13.835 22.4457 13.8834 22.4941 13.9317C21.4782 15.4313 20.7526 17.1728 20.3656 19.011C20.3173 19.011 20.3173 19.011 20.2689 19.011C19.3498 19.011 18.3823 19.011 17.4632 19.011C17.4148 19.011 17.3665 19.011 17.3665 19.011C17.1246 19.9785 17.0278 20.8976 17.0278 21.8651C17.0278 22.8326 17.1246 23.7517 17.2697 24.6708H17.3181Z" fill="#2E3A59"/>
<path d="M27.7666 21.6232C27.7666 21.6716 27.7666 21.72 27.7666 21.7683C27.7666 23.9452 28.8308 25.8318 30.4756 26.9927C30.6207 27.0895 30.7174 27.1379 30.8625 27.2346V26.896V22.494C30.8625 21.6716 31.5398 20.946 32.4105 20.946H35.8934C36.7158 20.946 37.4414 21.6232 37.4414 22.494V26.8476V27.1862C37.5865 27.0895 37.7317 26.9927 37.8284 26.896C39.4731 25.735 40.5374 23.8484 40.5374 21.72C40.5374 21.6716 40.5374 21.5748 40.5374 21.5265C40.489 19.4464 39.4248 17.6082 37.8284 16.4956C37.5865 16.3021 37.2963 16.1569 37.0061 16.0118V2.90245C37.0061 1.40285 35.8935 0.145122 34.3939 0C34.3455 0 34.2971 0 34.2487 0C32.7008 0 31.443 1.25773 31.3947 2.8057V16.0602C31.1044 16.2053 30.8625 16.3504 30.6207 16.5439C28.8792 17.6082 27.815 19.4948 27.7666 21.6232Z" fill="#2E3A59"/>
<path d="M53.7919 42.4725C53.0663 41.5534 51.8085 41.2147 50.6959 41.6985L34.2004 48.616L32.7492 49.0513C32.217 49.1965 31.6849 49.2932 31.1528 49.3416C29.9918 49.39 28.2504 49.4383 27.9601 49.4383H18.2853C18.1402 49.4383 17.9467 49.39 17.8499 49.2932C17.6081 49.1481 17.4629 48.8578 17.4629 48.5676C17.4629 48.0839 17.8499 47.7452 18.382 47.7452H29.363C30.137 47.7452 30.8142 47.455 31.2979 46.9229C31.7333 46.4875 32.0235 45.9554 32.0719 45.2782C32.0719 45.1814 32.0719 45.0847 32.0719 44.9395C32.0719 43.6334 31.1528 42.4725 29.8467 42.2306C23.7032 41.0212 17.6564 39.57 11.3678 40.0054C11.1259 40.0054 8.90072 40.1021 7.73975 40.1989V56.4526L7.78812 57.807C9.96495 58.0489 24.7191 59.8871 24.9609 59.9355C27.2829 60.3709 29.6532 60.2258 31.8784 58.9197C31.8784 58.9197 31.8784 58.9197 31.9268 58.9197C31.9268 58.9197 46.7293 50.5993 53.163 46.3424C54.4691 45.52 54.7594 43.6818 53.7919 42.4725Z" fill="#2E3A59"/>
<path d="M5.95001 38.3123H0V57.8554H5.95001V38.3123Z" fill="#2E3A59"/>
</svg>
