<svg width="75" height="47" viewBox="0 0 75 47" fill="none" xmlns="http://www.w3.org/2000/svg">
<path fill-rule="evenodd" clip-rule="evenodd" d="M19.7653 26.0838C19.4452 25.9636 19.1251 25.8635 18.885 25.7633C17.3846 25.1825 17.3446 23.9007 17.3446 23.9007C15.2841 26.4243 12.5233 26.4443 10.4228 23.8807C10.4228 23.8807 10.6028 25.1024 8.92238 25.7633C6.70179 26.6245 0.780208 27.8663 0.400107 30.9305C0 33.9948 0 37.3194 0 37.3194H3.84102V36.4382C3.84102 36.1178 4.1211 35.8374 4.44118 35.8374C4.76127 35.8374 5.04134 36.1178 5.04134 36.4382V37.3194H16.0443V37.2794C16.0443 35.2365 16.3444 32.8933 16.6044 30.8705C16.6644 30.4699 16.7645 30.0693 16.8845 29.6888C17.4246 28.1867 18.4849 27.0251 19.7653 26.0838ZM55.7749 25.8835C55.8949 25.8435 56.0149 25.8034 56.135 25.7633C57.6154 25.1825 57.6554 23.9007 57.6554 23.9007C59.7159 26.4243 62.4767 26.4443 64.5772 23.8807C64.5772 23.8807 64.3972 25.1024 66.0976 25.7633C68.2982 26.6245 74.2198 27.8663 74.6199 30.9305C75 33.9948 75 37.3194 75 37.3194H71.159V36.4382C71.159 36.1178 70.8989 35.8374 70.5588 35.8374C70.2387 35.8374 69.9587 36.1178 69.9587 36.4382V37.3194H59.7759V37.2794C59.7759 35.2365 59.4559 32.8933 59.1958 30.8705C58.9157 28.7074 57.5153 27.1052 55.7749 25.8835ZM66.9178 15.429C66.9178 18.1728 66.3977 19.6949 64.7773 22.3386C63.5169 23.9608 62.2966 24.7019 61.1163 24.6017C59.916 24.7019 58.7157 23.9608 57.4353 22.3386C55.8149 19.6949 55.3148 18.1728 55.3148 15.429C55.3148 7.49791 66.9178 7.49791 66.9178 15.429ZM35.0894 42.3064L37.9101 46.4722L40.7309 42.3064L38.8304 27.9864H37.0899L35.0894 42.3064ZM57.4753 37.2794C57.4753 37.2794 57.4753 35.4969 56.9352 31.1709C56.375 26.8448 48.0328 25.1024 44.932 23.9007C42.8114 23.0796 42.7714 21.2571 42.7714 21.2571C39.8706 24.8421 35.9696 24.8621 33.0288 21.237C33.0288 21.237 33.2689 22.9795 30.8882 23.9007C27.7674 25.1024 19.4452 26.8448 18.885 31.1709C18.3249 35.4969 18.3249 37.2794 18.3249 37.2794H34.3892L35.7095 27.7461C35.8095 27.0852 36.4097 26.8649 37.0699 26.8649H38.9304C39.5906 26.8649 40.1107 27.0852 40.1907 27.7461L41.4511 37.2794H57.4753ZM29.7279 9.34047C29.7279 13.2059 30.4481 15.3488 32.7287 19.074C34.5292 21.3572 36.2297 22.3987 37.9101 22.2585C39.5906 22.3987 41.291 21.3572 43.0715 19.074C45.3721 15.3488 46.0723 13.2059 46.0723 9.34047C46.0723 -1.83509 29.7279 -1.81506 29.7279 9.34047ZM8.10216 15.429C8.10216 18.1728 8.60229 19.6949 10.2227 22.3386C11.5031 23.9608 12.7034 24.7019 13.9037 24.6017C15.084 24.7019 16.3043 23.9608 17.5647 22.3386C19.1851 19.6949 19.7053 18.1728 19.7053 15.429C19.7053 7.49791 8.10216 7.49791 8.10216 15.429Z" fill="#2E3A59"/>
</svg>
