<svg width="59" height="35" viewBox="0 0 59 35" fill="none" xmlns="http://www.w3.org/2000/svg">
<path d="M6.90615 -6.96561e-05L0 17.7009L8.06521 20.8884L14.9714 3.18735L6.90615 -6.96561e-05Z" fill="#2E3A59"/>
<path d="M12.7315 24.2698L14.3587 22.9362C14.3862 22.9016 14.4068 22.9016 14.4342 22.8878L15.6014 21.9342L15.7731 21.7891C15.7731 21.7891 15.7731 21.7891 15.7731 21.7752C16.6245 21.0842 16.7412 19.8196 16.0409 18.9697C15.3543 18.1197 14.0909 17.9953 13.2464 18.7002L11.9213 19.7989C11.9213 19.7989 11.9213 19.7989 11.9213 19.8058L11.9007 19.8196L10.912 20.642C10.8914 20.6558 10.8708 20.6627 10.8502 20.6696L10.2323 21.1671C9.82719 21.5057 9.57315 21.9895 9.51822 22.5215C9.46329 23.0536 9.62808 23.5719 9.95764 23.9934C10.6511 24.8296 11.8938 24.954 12.7315 24.2698Z" fill="#2E3A59"/>
<path d="M18.5207 26.1494L19.9694 24.9816L20.9993 24.1316L21.528 23.6825C21.9399 23.3577 22.1871 22.8809 22.242 22.3488C22.2969 21.8167 22.1322 21.2915 21.7957 20.87C21.4524 20.4554 20.9787 20.1997 20.45 20.1513C19.9282 20.1099 19.4064 20.2619 19.0013 20.6005L16.3373 22.8187L16.303 22.8463L15.3074 23.6686C15.2937 23.6686 15.28 23.6686 15.2731 23.6825L13.4879 25.1405C13.4811 25.1474 13.4673 25.1682 13.4536 25.1682L12.3001 26.1218C11.8882 26.4673 11.6341 26.9441 11.5861 27.4762C11.5312 28.0083 11.6959 28.5334 12.0324 28.9411C12.3757 29.3488 12.8494 29.6114 13.3712 29.6667C13.8999 29.7082 14.4148 29.5423 14.8268 29.2037L16.0215 28.2225C16.1107 28.1326 16.1863 28.0359 16.2824 27.9461L18.4932 26.1701L18.5207 26.1494Z" fill="#2E3A59"/>
<path d="M51.2484 0.0020659L43.1904 3.18958L50.1022 20.8887L58.1602 17.7012L51.2484 0.0020659Z" fill="#2E3A59"/>
<path d="M22.5231 29.5353L25.4274 27.1236L25.599 26.9785C26.4435 26.2667 26.5671 25.0022 25.8668 24.1522C25.5304 23.7514 25.0566 23.4957 24.5279 23.4474C24.0061 23.399 23.4843 23.551 23.0724 23.9034L22.2553 24.5737L21.7198 25.0091L20.683 25.8798L20.6693 25.8936L19.4677 26.8817C19.4609 26.8956 19.4471 26.8956 19.4403 26.8956C19.4128 26.9094 19.3854 26.9301 19.3579 26.9439L19.1725 27.1029L16.742 29.1068C16.1446 29.8255 16.1172 30.9035 16.7351 31.6567C17.0715 32.0713 17.5521 32.327 18.074 32.3754C18.6026 32.4376 19.1176 32.2717 19.5295 31.9331L22.4956 29.5629C22.5094 29.5491 22.5094 29.5353 22.5231 29.5353Z" fill="#2E3A59"/>
<path d="M39.8522 5.63971C39.7492 5.66735 39.6325 5.66044 39.5295 5.62589C39.4334 5.58443 29.5053 1.94964 25.7496 3.06219C25.6123 3.09674 23.5388 3.70484 22.1175 5.77791C22.0969 5.80555 22.0901 5.81937 22.0763 5.8401C21.4447 6.7799 20.9434 8.01683 20.8267 9.64073L20.3667 13.317C21.2318 13.6694 23.525 14.3259 25.1523 12.391C25.1797 12.3634 26.9168 10.3732 27.164 7.50547C27.1914 7.1876 27.4592 6.95265 27.775 6.98029C28.0909 7.00102 28.3243 7.27743 28.2969 7.5953C28.2694 8.02374 28.2007 8.42453 28.1183 8.8046C28.8255 9.4127 31.0844 11.0988 33.8926 10.7118C34.2084 10.6704 34.4899 10.8846 34.5311 11.2024C34.5723 11.5203 34.3595 11.8036 34.0505 11.852C33.7896 11.8866 33.5218 11.8935 33.2678 11.9004L44.2396 20.5244C44.267 20.5382 44.2808 20.5589 44.2945 20.5727L47.9815 18.5964L42.6673 4.97632L39.8522 5.63971Z" fill="#2E3A59"/>
<path d="M29.4928 30.4336C29.9254 30.0673 30.1794 29.5836 30.2275 29.0654C30.2824 28.5333 30.1176 28.0081 29.7881 27.5935C29.0877 26.7435 27.8313 26.6191 26.9868 27.3171L25.2016 28.8028L22.1806 31.4425C21.7549 31.8018 21.5009 32.2786 21.4459 32.8107C21.391 33.3428 21.5558 33.8611 21.8922 34.2688C22.5926 35.1187 23.8422 35.25 24.6867 34.5452L28.1471 31.6705L29.4928 30.4336Z" fill="#2E3A59"/>
<path d="M30.5839 31.1797L30.4466 31.076C30.3711 31.1521 30.3093 31.2212 30.2406 31.2903L29.2313 32.2231C29.2107 32.2646 29.1901 32.3061 29.1558 32.3337L28.8949 32.541L27.4668 33.8816L28.325 34.469C29.2245 35.0909 30.4603 34.8767 31.0851 33.9645C31.7099 33.0593 31.4902 31.8154 30.5839 31.1797Z" fill="#2E3A59"/>
<path d="M43.5681 21.45L31.0927 11.6375C29.6097 11.2505 28.4562 10.525 27.7765 9.99978C27.1036 11.8863 26.0737 13.0817 26.0119 13.1439C24.9271 14.4361 23.5539 14.8508 22.3043 14.8508C21.1646 14.8508 20.1278 14.5122 19.4893 14.1666C19.2696 14.0561 19.1528 13.828 19.1872 13.5931L19.6953 9.52297C19.8051 8.08564 20.1827 6.91781 20.6977 5.94347L15.4727 5.05896L9.98682 19.0936C10.1104 19.2664 10.234 19.4322 10.3576 19.5981L11.2021 18.914L12.5272 17.8083C13.8592 16.7096 15.8297 16.9031 16.9351 18.2368C17.4158 18.8241 17.6355 19.5428 17.6286 20.2477L18.2809 19.7087C18.9194 19.1697 19.7296 18.9209 20.5672 19.0038C21.398 19.0867 22.1533 19.4875 22.6819 20.1371C23.2106 20.7867 23.4578 21.609 23.3754 22.4451C23.7805 22.3138 24.2062 22.2654 24.6387 22.3C25.4695 22.3829 26.2248 22.7837 26.7534 23.4333C27.3233 24.1312 27.5293 24.995 27.4332 25.8311C28.5798 25.5133 29.8568 25.8795 30.6602 26.8538C31.1888 27.5034 31.4429 28.3257 31.3605 29.1619C31.333 29.5074 31.23 29.8252 31.0996 30.1431L33.8871 32.0849C34.7866 32.7206 36.0362 32.4926 36.6679 31.5874C36.9562 31.1589 37.0798 30.613 36.9837 30.1017C36.8807 29.5627 36.5992 29.1066 36.1529 28.8025L29.0535 23.841C28.7926 23.6682 28.7308 23.3089 28.9093 23.0463C29.0879 22.7906 29.4449 22.7215 29.7058 22.9012L37.684 28.4708C38.5834 29.1066 39.8262 28.8716 40.4441 27.9664C41.0758 27.075 40.8492 25.8173 39.9498 25.1885L33.2692 20.5241L32.2737 19.833C32.0196 19.6534 31.951 19.2871 32.1295 19.0315C32.3148 18.7689 32.665 18.7067 32.9328 18.8863L33.331 19.1697L33.9215 19.5843L40.6089 24.2556L41.3161 24.7393C42.1949 25.375 43.4377 25.1332 44.0693 24.2349C44.6873 23.3227 44.4676 22.0858 43.5681 21.45Z" fill="#2E3A59"/>
</svg>
