<svg width="119" height="98" viewBox="0 0 119 98" fill="none" xmlns="http://www.w3.org/2000/svg">
<path d="M101.946 77.7602C100.858 76.6738 100.022 74.5437 99.4286 72.5363C102.713 70.8386 105.346 67.6407 106.77 63.6447C108.662 62.8305 110.025 60.7057 110.025 58.1885C110.025 56.061 109.047 54.2165 107.604 53.1994C106.241 45.5464 100.682 39.8099 94.0194 39.8099C87.3568 39.8099 81.8006 45.5437 80.435 53.1994C78.9918 54.2165 78.0137 56.061 78.0137 58.1885C78.0137 60.7057 79.374 62.8305 81.2688 63.6447C82.6932 67.6407 85.3284 70.8386 88.6102 72.5363C88.0169 74.5437 87.1777 76.6738 86.0927 77.7602C86.0927 77.7602 69.042 82.8374 69.042 88.2188C69.042 93.5949 69.042 97.4815 69.042 97.4815H88.1853L91.844 84.9595C90.9567 84.9275 90.2405 84.2094 90.2405 83.3152V81.452C90.2405 80.539 90.9834 79.797 91.8974 79.797H96.1441C97.0607 79.797 97.801 80.539 97.801 81.452V83.3125C97.801 84.2068 97.0875 84.9248 96.1975 84.9568L99.8562 97.4788H118.999C118.999 97.4788 118.999 93.5922 118.999 88.2161C118.999 82.8374 101.946 77.7602 101.946 77.7602Z" fill="#2E3A59"/>
<path d="M94.0184 32.7495C94.0612 32.7495 94.1013 32.7468 94.144 32.7468C95.2959 32.7094 96.3756 32.1809 97.1079 31.2947L118.28 5.71419L112.098 0.613037L93.8287 22.6913L80.6531 8.65582L74.8057 14.1334L91.0947 31.4842C91.8537 32.293 92.912 32.7495 94.0184 32.7495Z" fill="#2E3A59"/>
<path d="M32.9041 77.7602C31.8164 76.6738 30.9799 74.5437 30.3866 72.5363C33.6711 70.8386 36.3036 67.6407 37.728 63.6447C39.6202 62.8305 40.9832 60.7057 40.9832 58.1885C40.9832 56.061 40.005 54.2165 38.5619 53.1994C37.1989 45.5464 31.64 39.8099 24.9774 39.8099C18.3148 39.8099 12.7586 45.5437 11.393 53.1994C9.94981 54.2165 8.97166 56.061 8.97166 58.1885C8.97166 60.7057 10.332 62.8305 12.2268 63.6447C13.6513 67.6407 16.2864 70.8386 19.5682 72.5363C18.9749 74.5437 18.1357 76.6738 17.0507 77.7602C17.0507 77.7602 0 82.8374 0 88.2188C0 93.5949 0 97.4815 0 97.4815H19.1433L22.802 84.9595C21.9147 84.9275 21.1985 84.2094 21.1985 83.3152V81.452C21.1985 80.539 21.9414 79.797 22.8554 79.797H27.1021C28.0187 79.797 28.759 80.539 28.759 81.452V83.3125C28.759 84.2068 28.0455 84.9248 27.1555 84.9568L30.8142 97.4788H49.9575C49.9575 97.4788 49.9575 93.5922 49.9575 88.2161C49.9575 82.8374 32.9041 77.7602 32.9041 77.7602Z" fill="#2E3A59"/>
<path d="M14.3139 35.0291L24.9773 24.381L35.6407 35.0291L41.3091 29.3674L30.6457 18.7193L41.3091 8.06858L35.6407 2.40686L24.9773 13.0576L14.3139 2.40686L8.64551 8.06858L19.3089 18.7193L8.64551 29.3674L14.3139 35.0291Z" fill="#2E3A59"/>
</svg>
