<svg width="110" height="111" viewBox="0 0 110 111" fill="none" xmlns="http://www.w3.org/2000/svg">
<path d="M80.8958 62.1C78.1458 59.34 73.7917 59.34 71.2708 62.1L69.4375 63.94L62.5625 57.04C67.375 51.06 70.125 43.47 70.125 35.19C70.125 15.64 54.3125 0 35.0625 0C15.5833 0 0 15.64 0 35.19C0 54.74 15.8125 70.38 35.0625 70.38C43.3125 70.38 50.875 67.62 56.8333 62.79L63.7083 69.69L61.875 71.53C59.125 74.29 59.125 78.66 61.875 81.19L65.5417 84.87L84.5625 65.78L80.8958 62.1ZM35.0625 61.18C20.8542 61.18 9.16667 49.45 9.16667 35.19C9.16667 20.93 20.8542 9.2 35.0625 9.2C49.2708 9.2 60.9583 20.93 60.9583 35.19C60.9583 49.45 49.2708 61.18 35.0625 61.18Z" fill="#2E3A59"/>
<path d="M107.48 89.01L87.5423 69L68.5215 88.09L88.459 108.1C91.209 110.86 95.5632 110.86 98.084 108.1L107.251 98.9C110.23 95.91 110.23 91.54 107.48 89.01Z" fill="#2E3A59"/>
<path d="M39.8757 35.1899C38.5007 36.3399 36.8965 37.0299 35.0631 37.0299C33.2298 37.0299 31.6257 36.3399 30.2507 35.1899C26.584 37.0299 23.834 41.1699 23.834 45.9999C30.9382 49.9099 38.2715 49.6799 46.0632 45.9999C46.0632 41.3999 43.5423 37.2599 39.8757 35.1899Z" fill="#2E3A59"/>
<path d="M35.0622 35.42C38.2263 35.42 40.7913 32.8457 40.7913 29.67C40.7913 26.4944 38.2263 23.92 35.0622 23.92C31.898 23.92 29.333 26.4944 29.333 29.67C29.333 32.8457 31.898 35.42 35.0622 35.42Z" fill="#2E3A59"/>
<path d="M50.1869 32.2C49.2702 33.12 47.8952 33.5799 46.5202 33.5799C45.1452 33.5799 43.9993 33.12 42.8535 32.2C42.3952 32.43 41.9369 32.66 41.4785 33.12C41.2494 33.35 41.0202 33.8099 40.791 34.0399C43.9994 35.8799 46.291 38.87 47.2077 42.5499C49.7285 42.32 52.2494 41.63 54.7702 40.48C54.9994 36.8 52.9369 33.58 50.1869 32.2Z" fill="#2E3A59"/>
<path d="M42.167 28.06C42.167 28.52 42.3962 28.75 42.3962 29.21C42.8545 31.05 44.6878 32.43 46.5212 32.43C48.8128 32.43 50.8753 30.59 50.8753 28.06C50.8753 25.76 49.042 23.69 46.5212 23.69C44.2295 23.46 42.167 25.53 42.167 28.06C42.167 27.83 42.167 28.06 42.167 28.06Z" fill="#2E3A59"/>
<path d="M29.1038 34.0399C28.8747 33.8099 28.6455 33.35 28.4163 33.12C27.958 32.66 27.4997 32.43 27.0413 32.2C26.1247 33.12 24.7497 33.5799 23.3747 33.5799C21.9997 33.5799 20.8538 33.12 19.708 32.2C16.958 33.58 14.8955 36.8 14.8955 40.48C17.4163 41.86 19.9372 42.5499 22.458 42.5499C23.6038 38.87 25.8955 35.8799 29.1038 34.0399Z" fill="#2E3A59"/>
<path d="M23.6051 32.1999C25.6676 32.1999 27.2718 30.8199 27.7301 28.9799C27.7301 28.5199 27.7301 28.2899 27.9593 28.0599C27.9593 25.7599 26.126 23.6899 23.6051 23.6899C21.3135 23.6899 19.251 25.5299 19.251 28.0599C19.251 30.3599 21.0843 32.1999 23.6051 32.1999Z" fill="#2E3A59"/>
</svg>
