<svg width="109" height="109" viewBox="0 0 109 109" fill="none" xmlns="http://www.w3.org/2000/svg">
<path d="M2.91617 83.9336L7.48577 84.7357C8.01663 86.7233 8.80538 88.6334 9.83201 90.4174L7.18411 94.2052C6.7192 94.8774 6.5039 95.6901 6.57528 96.5035C6.64665 97.3169 7.00024 98.0801 7.57515 98.6615L10.3236 101.402C10.9067 101.975 11.672 102.328 12.4877 102.399C13.3035 102.47 14.1186 102.256 14.7926 101.792L18.6025 99.1294C20.406 100.18 22.3407 100.989 24.3564 101.536L25.1608 106.092C25.3028 106.906 25.7279 107.643 26.3614 108.175C26.9949 108.707 27.7962 108.999 28.6243 109H32.5124C33.3405 108.999 34.1418 108.707 34.7753 108.175C35.4088 107.643 35.8339 106.906 35.9759 106.092L36.7803 101.536C38.7746 100.999 40.6901 100.205 42.4783 99.174L46.2882 101.837C46.9623 102.3 47.7774 102.515 48.5931 102.444C49.4088 102.372 50.1741 102.02 50.7572 101.447L53.5057 98.7061C54.0806 98.1246 54.4342 97.3615 54.5056 96.5481C54.577 95.7347 54.3616 94.922 53.8967 94.2498L51.2265 90.4508C52.2612 88.6681 53.0575 86.7579 53.5951 84.7691L58.1647 83.967C58.9805 83.8254 59.7202 83.4015 60.2536 82.7698C60.7869 82.1382 61.0798 81.3391 61.0807 80.5134V76.603C61.0798 75.7773 60.7869 74.9783 60.2536 74.3466C59.7202 73.7149 58.9805 73.291 58.1647 73.1494L53.6063 72.325C53.0688 70.3361 52.2725 68.426 51.2377 66.6433L53.9079 62.8443C54.3728 62.1722 54.5881 61.3594 54.5167 60.546C54.4454 59.7326 54.0918 58.9695 53.5169 58.3881L50.7796 55.6141C50.1965 55.0408 49.4312 54.6882 48.6154 54.6171C47.7997 54.5459 46.9846 54.7606 46.3106 55.2241L42.456 57.909C40.6678 56.8779 38.7523 56.084 36.758 55.5472L35.9536 50.9907C35.8116 50.1772 35.3865 49.4396 34.753 48.9078C34.1195 48.3759 33.3182 48.0839 32.49 48.083H28.6131C27.785 48.0839 26.9837 48.3759 26.3502 48.9078C25.7167 49.4396 25.2916 50.1772 25.1496 50.9907L24.3564 55.5472C22.3621 56.084 20.4466 56.8779 18.6584 57.909L14.8485 55.2464C14.1744 54.7828 13.3593 54.5682 12.5436 54.6393C11.7279 54.7105 10.9626 55.0631 10.3795 55.6363L7.59749 58.3658C7.02259 58.9472 6.669 59.7104 6.59762 60.5238C6.52625 61.3372 6.74155 62.1499 7.20645 62.8221L9.83201 66.6656C8.81069 68.443 8.02574 70.3455 7.49694 72.325L2.91617 73.1272C2.1003 73.2687 1.36063 73.6926 0.827263 74.3243C0.293898 74.956 0.00101152 75.755 0.000125699 76.5807V80.4465C-0.00691919 81.278 0.282366 82.085 0.816423 82.7236C1.35048 83.3623 2.0946 83.791 2.91617 83.9336ZM30.546 67.3452C32.7557 67.3452 34.9159 67.9986 36.7532 69.2227C38.5905 70.4468 40.0225 72.1868 40.8681 74.2225C41.7138 76.2581 41.935 78.4982 41.5039 80.6592C41.0728 82.8203 40.0087 84.8054 38.4462 86.3634C36.8837 87.9215 34.8929 88.9825 32.7257 89.4124C30.5584 89.8422 28.312 89.6216 26.2704 88.7784C24.2289 87.9352 22.484 86.5073 21.2563 84.6752C20.0287 82.8431 19.3734 80.6892 19.3734 78.4858C19.3734 75.5311 20.5505 72.6974 22.6458 70.6082C24.7411 68.5189 27.5829 67.3452 30.546 67.3452ZM85.9733 93.2806V78.5749H81.3366C81.0885 78.5689 80.8466 78.4966 80.6361 78.3654C80.4256 78.2343 80.2543 78.0492 80.1401 77.8294C80.0259 77.6097 79.9731 77.3634 79.987 77.1163C80.0009 76.8692 80.0812 76.6304 80.2194 76.4248L89.3139 62.9557C89.4373 62.7719 89.6032 62.6202 89.7976 62.5136C89.992 62.407 90.2093 62.3485 90.4311 62.343C90.653 62.3485 90.8702 62.407 91.0647 62.5136C91.2591 62.6202 91.425 62.7719 91.5484 62.9557L100.665 76.4248C100.803 76.6304 100.884 76.8692 100.898 77.1163C100.912 77.3634 100.859 77.6097 100.744 77.8294C100.63 78.0492 100.459 78.2343 100.249 78.3654C100.038 78.4966 99.7961 78.5689 99.548 78.5749H94.8667V97.7145C94.8667 98.8964 94.3958 100.03 93.5577 100.866C92.7196 101.701 91.5829 102.171 90.3976 102.171H63.5499C63.0195 102.171 62.5108 101.961 62.1357 101.587C61.7607 101.213 61.55 100.706 61.55 100.177V95.2747C61.55 94.7458 61.7607 94.2386 62.1357 93.8646C62.5108 93.4907 63.0195 93.2806 63.5499 93.2806H85.9733ZM106.084 35.8506C106.9 35.709 107.639 35.2851 108.173 34.6534C108.706 34.0217 108.999 33.2227 109 32.397V28.5312C108.999 27.7054 108.706 26.9064 108.173 26.2747C107.639 25.643 106.9 25.2191 106.084 25.0776L101.514 24.2755C100.999 22.2862 100.225 20.3724 99.2128 18.5826L101.883 14.7836C102.348 14.1115 102.563 13.2987 102.492 12.4853C102.421 11.6719 102.067 10.9088 101.492 10.3274L98.7212 7.55335C98.1381 6.98009 97.3728 6.62752 96.5571 6.55634C95.7413 6.48517 94.9262 6.69986 94.2522 7.16343L90.4088 9.82604C88.6137 8.79294 86.6905 7.99891 84.6884 7.46423L83.9063 2.90771C83.7644 2.09417 83.3392 1.35661 82.7057 0.824771C82.0723 0.292932 81.271 0.000883288 80.4428 0H76.5548C75.7266 0.000883288 74.9253 0.292932 74.2918 0.824771C73.6583 1.35661 73.2332 2.09417 73.0913 2.90771L72.2868 7.46423C70.2925 8.00074 68.3769 8.79472 66.5888 9.82604L62.779 7.16343C62.1049 6.69986 61.2898 6.48517 60.4741 6.55634C59.6583 6.62752 58.893 6.98009 58.3099 7.55335L55.5279 10.294C54.953 10.8754 54.5994 11.6385 54.5281 12.4519C54.4567 13.2653 54.672 14.0781 55.1369 14.7502L57.8072 18.5492C56.7725 20.332 55.9762 22.2421 55.4386 24.2309L50.869 25.033C50.0531 25.1746 49.3134 25.5985 48.7801 26.2302C48.2467 26.8619 47.9538 27.6609 47.9529 28.4866V32.3524C47.9538 33.1782 48.2467 33.9772 48.7801 34.6089C49.3134 35.2405 50.0531 35.6645 50.869 35.806L55.4497 36.6081C55.9871 38.5971 56.7834 40.5072 57.8183 42.2899L55.1481 46.0888C54.6832 46.761 54.4679 47.5737 54.5392 48.3871C54.6106 49.2005 54.9642 49.9636 55.5391 50.5451L58.2652 53.3859C58.8483 53.9592 59.6136 54.3118 60.4294 54.3829C61.2451 54.4541 62.0602 54.2394 62.7343 53.7759L66.5441 51.1132C68.3321 52.1448 70.2477 52.9388 72.2421 53.4751L73.0466 58.0316C73.1885 58.8451 73.6137 59.5827 74.2472 60.1145C74.8807 60.6464 75.6819 60.9384 76.5101 60.9393H80.3981C81.2263 60.9384 82.0276 60.6464 82.6611 60.1145C83.2946 59.5827 83.7197 58.8451 83.8616 58.0316L84.6884 53.4528C86.6829 52.9165 88.5985 52.1225 90.3864 51.091L94.1963 53.7536C94.8704 54.2172 95.6855 54.4318 96.5012 54.3607C97.3169 54.2895 98.0823 53.9369 98.6653 53.3637L101.447 50.6342C102.022 50.0528 102.376 49.2896 102.447 48.4763C102.519 47.6629 102.303 46.8501 101.838 46.1779L99.2128 42.3344C100.234 40.5571 101.019 38.6546 101.548 36.675L106.084 35.8506ZM78.4988 41.6548C76.2891 41.6548 74.129 41.0015 72.2916 39.7773C70.4543 38.5532 69.0223 36.8132 68.1767 34.7775C67.331 32.7419 67.1098 30.5019 67.5409 28.3408C67.972 26.1797 69.0361 24.1946 70.5986 22.6366C72.1611 21.0785 74.1519 20.0175 76.3191 19.5876C78.4864 19.1578 80.7328 19.3784 82.7744 20.2216C84.8159 21.0648 86.5608 22.4927 87.7885 24.3248C89.0161 26.1569 89.6714 28.3108 89.6714 30.5142C89.6714 33.4689 88.4943 36.3026 86.399 38.3918C84.3037 40.4811 81.462 41.6548 78.4988 41.6548ZM23.0715 15.7194V30.4251H27.7082C27.9563 30.4311 28.1982 30.5034 28.4087 30.6346C28.6192 30.7657 28.7905 30.9508 28.9047 31.1706C29.0189 31.3903 29.0718 31.6366 29.0578 31.8837C29.0439 32.1308 28.9636 32.3696 28.8254 32.5752L19.7645 46.0443C19.641 46.2281 19.4751 46.3798 19.2807 46.4864C19.0863 46.593 18.869 46.6515 18.6472 46.657C18.4254 46.6515 18.2081 46.593 18.0137 46.4864C17.8192 46.3798 17.6533 46.2281 17.5299 46.0443L8.37957 32.5752C8.24139 32.3696 8.16113 32.1308 8.14719 31.8837C8.13325 31.6366 8.18613 31.3903 8.30031 31.1706C8.4145 30.9508 8.58579 30.7657 8.79627 30.6346C9.00676 30.5034 9.24871 30.4311 9.49683 30.4251H14.1446V11.2855C14.1446 10.1036 14.6155 8.97013 15.4536 8.13442C16.2917 7.29871 17.4284 6.82921 18.6137 6.82921H45.4949C46.0254 6.82921 46.534 7.03931 46.9091 7.41329C47.2841 7.78727 47.4948 8.2945 47.4948 8.82339V13.7253C47.4948 13.9871 47.4431 14.2465 47.3426 14.4884C47.2421 14.7303 47.0948 14.9502 46.9091 15.1354C46.7234 15.3205 46.5029 15.4674 46.2603 15.5676C46.0176 15.6679 45.7576 15.7194 45.4949 15.7194H23.0715Z" fill="#2E3A59"/>
</svg>
